<svg width="24" height="24" viewBox="0 0 24 24" fill="none" xmlns="http://www.w3.org/2000/svg">
<rect width="24" height="24" rx="5.33333" fill="#FFF066"/>
<g clip-path="url(#clip0_7043_27432)">
<mask id="mask0_7043_27432" style="mask-type:luminance" maskUnits="userSpaceOnUse" x="5" y="5" width="14" height="14">
<path d="M18.6693 5.33398H5.33594V18.6673H18.6693V5.33398Z" fill="white"/>
</mask>
<g mask="url(#mask0_7043_27432)">
<path d="M12.0039 5.50195C13.1175 5.50195 14.1128 6.00568 14.7568 6.84375C14.8553 6.83587 14.9469 6.83496 15.0039 6.83496C16.9466 6.83496 18.5037 8.3923 18.5039 10.335C18.5039 11.4096 17.9818 12.4057 17.2373 13.042V17.335C17.2373 17.9754 16.7812 18.5017 16.1377 18.502H7.9375C7.29378 18.502 6.83691 17.9756 6.83691 17.335V13.0537C6.03009 12.4155 5.50391 11.4133 5.50391 10.335C5.50408 8.3923 7.06121 6.83496 9.00391 6.83496C9.06071 6.83496 9.15187 6.83595 9.25 6.84375C9.89401 6.0054 10.8901 5.50195 12.0039 5.50195ZM12.0039 6.50195C11.1102 6.50195 10.3385 6.94582 9.89648 7.66406C9.77769 7.8571 9.54696 7.94293 9.33594 7.88379L9.25488 7.85254C9.25485 7.85253 9.2517 7.85117 9.24512 7.84961C9.23265 7.84666 9.21365 7.84344 9.1875 7.84082C9.13264 7.83534 9.07335 7.83496 9.00391 7.83496C7.61349 7.83496 6.50408 8.94459 6.50391 10.335C6.50391 11.1596 6.94674 11.9406 7.61426 12.3857C7.7533 12.4784 7.83685 12.6347 7.83691 12.8018V17.335C7.83691 17.4221 7.86513 17.4637 7.87891 17.4785C7.89207 17.4926 7.90921 17.502 7.9375 17.502H16.1377C16.1658 17.5019 16.1832 17.4926 16.1963 17.4785C16.2101 17.4635 16.2373 17.4218 16.2373 17.335V12.8018C16.2374 12.6419 16.314 12.4915 16.4434 12.3975C17.057 11.9511 17.5039 11.1632 17.5039 10.335C17.5037 8.94459 16.3943 7.83496 15.0039 7.83496C14.9345 7.83496 14.8752 7.83534 14.8203 7.84082C14.7942 7.84344 14.7752 7.84666 14.7627 7.84961C14.7561 7.85118 14.7529 7.85254 14.7529 7.85254L14.6719 7.88379C14.4609 7.94293 14.2301 7.8571 14.1113 7.66406C13.6693 6.94582 12.8976 6.50195 12.0039 6.50195Z" fill="black"/>
</g>
<path d="M10.0039 12.8359C10.28 12.8359 10.5039 13.0598 10.5039 13.3359V15.3359C10.5039 15.6121 10.28 15.8359 10.0039 15.8359C9.72776 15.8359 9.50391 15.6121 9.50391 15.3359V13.3359C9.50391 13.0598 9.72776 12.8359 10.0039 12.8359ZM12.0039 12.8359C12.28 12.8359 12.5039 13.0598 12.5039 13.3359V15.3359C12.5039 15.6121 12.28 15.8359 12.0039 15.8359C11.7278 15.8359 11.5039 15.6121 11.5039 15.3359V13.3359C11.5039 13.0598 11.7278 12.8359 12.0039 12.8359ZM14.0039 12.8359C14.28 12.8359 14.5039 13.0598 14.5039 13.3359V15.3359C14.5039 15.6121 14.28 15.8359 14.0039 15.8359C13.7278 15.8359 13.5039 15.6121 13.5039 15.3359V13.3359C13.5039 13.0598 13.7278 12.8359 14.0039 12.8359Z" fill="black"/>
</g>
<defs>
<clipPath id="clip0_7043_27432">
<rect width="13.3333" height="13.3333" fill="white" transform="translate(5.33594 5.33398)"/>
</clipPath>
</defs>
</svg>
